<mxfile host="app.diagrams.net" modified="2024-05-31T13:04:57.163Z" agent="Mozilla/5.0 (Windows NT 10.0; Win64; x64) AppleWebKit/537.36 (KHTML, like Gecko) Chrome/125.0.0.0 Safari/537.36" etag="3R7rVihLzocwqN9jSvOq" version="24.4.13" type="device">
  <diagram name="Page-1" id="QJ_ws5KNDO_UqrzyWifn">
    <mxGraphModel dx="1434" dy="738" grid="1" gridSize="10" guides="1" tooltips="1" connect="1" arrows="1" fold="1" page="1" pageScale="1" pageWidth="850" pageHeight="1100" background="#ffffff" math="0" shadow="0">
      <root>
        <mxCell id="0" />
        <mxCell id="1" parent="0" />
        <mxCell id="AlytGesHQD0t_ifTEUBh-59" value="INVENTORY_USER" style="swimlane;whiteSpace=wrap;html=1;" parent="1" vertex="1">
          <mxGeometry x="500" y="100" width="180" height="200" as="geometry" />
        </mxCell>
        <mxCell id="AlytGesHQD0t_ifTEUBh-60" value="&lt;u&gt;&lt;font style=&quot;font-size: 14px;&quot;&gt;ID&lt;/font&gt;&lt;/u&gt;" style="text;html=1;align=center;verticalAlign=middle;resizable=0;points=[];autosize=1;strokeColor=none;fillColor=none;" parent="AlytGesHQD0t_ifTEUBh-59" vertex="1">
          <mxGeometry y="30" width="40" height="30" as="geometry" />
        </mxCell>
        <mxCell id="AlytGesHQD0t_ifTEUBh-61" value="NAME" style="text;html=1;align=center;verticalAlign=middle;resizable=0;points=[];autosize=1;strokeColor=none;fillColor=none;" parent="AlytGesHQD0t_ifTEUBh-59" vertex="1">
          <mxGeometry y="50" width="60" height="30" as="geometry" />
        </mxCell>
        <mxCell id="AlytGesHQD0t_ifTEUBh-62" value="DOB" style="text;html=1;align=center;verticalAlign=middle;resizable=0;points=[];autosize=1;strokeColor=none;fillColor=none;" parent="AlytGesHQD0t_ifTEUBh-59" vertex="1">
          <mxGeometry x="5" y="110" width="50" height="30" as="geometry" />
        </mxCell>
        <mxCell id="AlytGesHQD0t_ifTEUBh-63" value="ROLE" style="text;html=1;align=center;verticalAlign=middle;resizable=0;points=[];autosize=1;strokeColor=none;fillColor=none;" parent="AlytGesHQD0t_ifTEUBh-59" vertex="1">
          <mxGeometry x="5" y="130" width="60" height="30" as="geometry" />
        </mxCell>
        <mxCell id="AlytGesHQD0t_ifTEUBh-64" value="PASSWORD&lt;br&gt;User_Activated" style="text;html=1;align=left;verticalAlign=middle;resizable=0;points=[];autosize=1;strokeColor=none;fillColor=none;" parent="AlytGesHQD0t_ifTEUBh-59" vertex="1">
          <mxGeometry x="20" y="150" width="100" height="40" as="geometry" />
        </mxCell>
        <mxCell id="AlytGesHQD0t_ifTEUBh-65" value="EMAIL" style="text;html=1;align=center;verticalAlign=middle;resizable=0;points=[];autosize=1;strokeColor=none;fillColor=none;" parent="AlytGesHQD0t_ifTEUBh-59" vertex="1">
          <mxGeometry y="70" width="60" height="30" as="geometry" />
        </mxCell>
        <mxCell id="AlytGesHQD0t_ifTEUBh-66" value="ADDRESS" style="text;html=1;align=center;verticalAlign=middle;resizable=0;points=[];autosize=1;strokeColor=none;fillColor=none;" parent="AlytGesHQD0t_ifTEUBh-59" vertex="1">
          <mxGeometry x="5" y="90" width="80" height="30" as="geometry" />
        </mxCell>
        <mxCell id="qJgt5uhkLQtTElu6h2LF-7" value="" style="edgeStyle=orthogonalEdgeStyle;rounded=0;orthogonalLoop=1;jettySize=auto;html=1;entryX=1;entryY=0.25;entryDx=0;entryDy=0;" edge="1" parent="1" target="AlytGesHQD0t_ifTEUBh-67">
          <mxGeometry relative="1" as="geometry">
            <mxPoint x="1060" y="250" as="sourcePoint" />
            <mxPoint x="990" y="160" as="targetPoint" />
            <Array as="points">
              <mxPoint x="1010" y="257" />
              <mxPoint x="1010" y="163" />
            </Array>
          </mxGeometry>
        </mxCell>
        <mxCell id="AlytGesHQD0t_ifTEUBh-67" value="PRODUCT_CATEGORY" style="swimlane;whiteSpace=wrap;html=1;" parent="1" vertex="1">
          <mxGeometry x="770" y="120" width="190" height="170" as="geometry" />
        </mxCell>
        <mxCell id="AlytGesHQD0t_ifTEUBh-68" value="C_NAME" style="text;html=1;align=center;verticalAlign=middle;resizable=0;points=[];autosize=1;strokeColor=none;fillColor=none;" parent="AlytGesHQD0t_ifTEUBh-67" vertex="1">
          <mxGeometry y="50" width="70" height="30" as="geometry" />
        </mxCell>
        <mxCell id="AlytGesHQD0t_ifTEUBh-69" value="&lt;u&gt;C_ID&lt;/u&gt;" style="text;html=1;align=center;verticalAlign=middle;resizable=0;points=[];autosize=1;strokeColor=none;fillColor=none;" parent="AlytGesHQD0t_ifTEUBh-67" vertex="1">
          <mxGeometry y="30" width="50" height="30" as="geometry" />
        </mxCell>
        <mxCell id="AlytGesHQD0t_ifTEUBh-70" value="QUANTITY ( )" style="text;html=1;align=center;verticalAlign=middle;resizable=0;points=[];autosize=1;strokeColor=none;fillColor=none;" parent="AlytGesHQD0t_ifTEUBh-67" vertex="1">
          <mxGeometry y="70" width="100" height="30" as="geometry" />
        </mxCell>
        <mxCell id="AlytGesHQD0t_ifTEUBh-72" value="SUBCATEGORY" style="swimlane;whiteSpace=wrap;html=1;" parent="1" vertex="1">
          <mxGeometry x="1060" y="210" width="190" height="230" as="geometry" />
        </mxCell>
        <mxCell id="AlytGesHQD0t_ifTEUBh-73" value="&lt;div&gt;&lt;u&gt;S_ID&lt;/u&gt;&lt;/div&gt;&lt;div&gt;&lt;u&gt;&lt;br&gt;&lt;/u&gt;&lt;/div&gt;S_NAME" style="text;html=1;align=left;verticalAlign=middle;resizable=0;points=[];autosize=1;strokeColor=none;fillColor=none;" parent="AlytGesHQD0t_ifTEUBh-72" vertex="1">
          <mxGeometry x="10" y="60" width="70" height="60" as="geometry" />
        </mxCell>
        <mxCell id="AlytGesHQD0t_ifTEUBh-74" value="C_ID" style="text;html=1;align=center;verticalAlign=middle;resizable=0;points=[];autosize=1;strokeColor=none;fillColor=none;" parent="AlytGesHQD0t_ifTEUBh-72" vertex="1">
          <mxGeometry y="30" width="50" height="30" as="geometry" />
        </mxCell>
        <mxCell id="AlytGesHQD0t_ifTEUBh-75" value="BUYINGPRICE&lt;div&gt;&lt;br&gt;&lt;/div&gt;&lt;div&gt;SELLINGPRICE&lt;/div&gt;&lt;div&gt;&lt;br&gt;&lt;/div&gt;&lt;div&gt;STOCK&lt;/div&gt;" style="text;html=1;align=left;verticalAlign=middle;resizable=0;points=[];autosize=1;strokeColor=none;fillColor=none;" parent="AlytGesHQD0t_ifTEUBh-72" vertex="1">
          <mxGeometry x="10" y="120" width="110" height="90" as="geometry" />
        </mxCell>
        <mxCell id="AlytGesHQD0t_ifTEUBh-76" value="CUSTOMER" style="swimlane;whiteSpace=wrap;html=1;startSize=23;" parent="1" vertex="1">
          <mxGeometry x="480" y="360" width="200" height="200" as="geometry" />
        </mxCell>
        <mxCell id="AlytGesHQD0t_ifTEUBh-77" value="&lt;u&gt;CUSTOMER_ID&lt;/u&gt;" style="text;html=1;align=center;verticalAlign=middle;resizable=0;points=[];autosize=1;strokeColor=none;fillColor=none;" parent="AlytGesHQD0t_ifTEUBh-76" vertex="1">
          <mxGeometry y="30" width="110" height="30" as="geometry" />
        </mxCell>
        <mxCell id="AlytGesHQD0t_ifTEUBh-78" value="&lt;font style=&quot;font-size: 14px;&quot;&gt;{ PHONE }&lt;/font&gt;" style="text;html=1;align=center;verticalAlign=middle;resizable=0;points=[];autosize=1;strokeColor=none;fillColor=none;" parent="AlytGesHQD0t_ifTEUBh-76" vertex="1">
          <mxGeometry y="100" width="90" height="30" as="geometry" />
        </mxCell>
        <mxCell id="AlytGesHQD0t_ifTEUBh-79" value="MEMBERSHIPDATE" style="text;html=1;align=center;verticalAlign=middle;resizable=0;points=[];autosize=1;strokeColor=none;fillColor=none;" parent="AlytGesHQD0t_ifTEUBh-76" vertex="1">
          <mxGeometry y="150" width="140" height="30" as="geometry" />
        </mxCell>
        <mxCell id="AlytGesHQD0t_ifTEUBh-80" value="NAME&lt;div&gt;&lt;span style=&quot;white-space: pre;&quot;&gt;&#x9;&lt;/span&gt;FIRSTNAME&lt;/div&gt;&lt;div&gt;&lt;span style=&quot;white-space: pre;&quot;&gt;&#x9;&lt;/span&gt;LASTNAME&lt;/div&gt;" style="text;html=1;align=left;verticalAlign=middle;resizable=0;points=[];autosize=1;strokeColor=none;fillColor=none;" parent="AlytGesHQD0t_ifTEUBh-76" vertex="1">
          <mxGeometry x="10" y="50" width="120" height="60" as="geometry" />
        </mxCell>
        <mxCell id="AlytGesHQD0t_ifTEUBh-81" value="ADDRESS" style="text;html=1;align=center;verticalAlign=middle;resizable=0;points=[];autosize=1;strokeColor=none;fillColor=none;" parent="AlytGesHQD0t_ifTEUBh-76" vertex="1">
          <mxGeometry x="5" y="130" width="80" height="30" as="geometry" />
        </mxCell>
        <mxCell id="AlytGesHQD0t_ifTEUBh-82" value="ORDERS" style="swimlane;whiteSpace=wrap;html=1;" parent="1" vertex="1">
          <mxGeometry x="760" y="410" width="190" height="235" as="geometry" />
        </mxCell>
        <mxCell id="AlytGesHQD0t_ifTEUBh-83" value="&lt;u&gt;ORDER_ID&lt;/u&gt;" style="text;html=1;align=center;verticalAlign=middle;resizable=0;points=[];autosize=1;strokeColor=none;fillColor=none;" parent="AlytGesHQD0t_ifTEUBh-82" vertex="1">
          <mxGeometry y="38" width="90" height="30" as="geometry" />
        </mxCell>
        <mxCell id="AlytGesHQD0t_ifTEUBh-84" value="S_ID&lt;div&gt;&lt;br&gt;&lt;/div&gt;&lt;div&gt;PRODUCTAMOUNT&lt;/div&gt;&lt;div&gt;&lt;br&gt;&lt;/div&gt;&lt;div&gt;CUSTOMER_ID&lt;br&gt;&lt;br&gt;ORDER QUANTITY&lt;br&gt;&lt;br&gt;ORDERDATE&lt;/div&gt;" style="text;html=1;align=left;verticalAlign=middle;resizable=0;points=[];autosize=1;strokeColor=none;fillColor=none;" parent="AlytGesHQD0t_ifTEUBh-82" vertex="1">
          <mxGeometry x="15" y="70" width="130" height="140" as="geometry" />
        </mxCell>
        <mxCell id="qJgt5uhkLQtTElu6h2LF-2" value="" style="endArrow=none;html=1;rounded=0;exitX=1;exitY=0.5;exitDx=0;exitDy=0;" edge="1" parent="1">
          <mxGeometry width="50" height="50" relative="1" as="geometry">
            <mxPoint x="950" y="487.5" as="sourcePoint" />
            <mxPoint x="1060" y="290" as="targetPoint" />
            <Array as="points">
              <mxPoint x="1010" y="488" />
              <mxPoint x="1010" y="290" />
            </Array>
          </mxGeometry>
        </mxCell>
        <mxCell id="qJgt5uhkLQtTElu6h2LF-3" value="" style="endArrow=classic;html=1;rounded=0;" edge="1" parent="1">
          <mxGeometry width="50" height="50" relative="1" as="geometry">
            <mxPoint x="680" y="400" as="sourcePoint" />
            <mxPoint x="760" y="550" as="targetPoint" />
            <Array as="points">
              <mxPoint x="720" y="400" />
              <mxPoint x="720" y="550" />
            </Array>
          </mxGeometry>
        </mxCell>
        <mxCell id="qJgt5uhkLQtTElu6h2LF-4" value="" style="endArrow=none;html=1;rounded=0;exitX=1;exitY=0.5;exitDx=0;exitDy=0;entryX=0;entryY=0.467;entryDx=0;entryDy=0;entryPerimeter=0;" edge="1" parent="1" source="AlytGesHQD0t_ifTEUBh-59" target="AlytGesHQD0t_ifTEUBh-70">
          <mxGeometry width="50" height="50" relative="1" as="geometry">
            <mxPoint x="710" y="250" as="sourcePoint" />
            <mxPoint x="760" y="200" as="targetPoint" />
          </mxGeometry>
        </mxCell>
      </root>
    </mxGraphModel>
  </diagram>
</mxfile>
